<svg width="421" height="340" viewBox="0 0 421 340" fill="none" xmlns="http://www.w3.org/2000/svg">
<g clip-path="url(#clip0_47_120)">
<path d="M10.4247 135.528C14.0737 142.381 19.6171 145.89 27.0548 145.89C34.4924 145.89 39.3112 141.804 39.3112 136.113C39.3112 131.006 35.959 128.527 29.0975 126.196C13.0523 120.652 3.41478 117.876 3.41478 105.044C3.41478 93.5206 12.4587 85.3496 26.4699 85.3496C37.705 85.3496 46.164 90.02 49.6646 98.3306L40.6207 103.874C37.8446 97.8942 32.5981 94.5332 25.7366 94.5332C18.875 94.5332 14.6499 98.6187 14.6499 104.31C14.6499 111.172 20.49 112.045 31.4283 115.546C44.2697 119.631 50.3979 124.301 50.3979 134.952C50.3979 147.208 41.2056 155.667 26.6183 155.667C14.5102 155.667 6.04241 151.145 0.935547 141.953L10.416 135.537L10.4247 135.528Z" fill="black"/>
<path d="M72.2833 121.962V122.983C72.2833 136.985 81.3272 146.326 93.8805 146.326C102.636 146.326 109.638 141.656 115.033 132.175L123.492 137.867C116.927 149.687 106.862 155.667 93.2869 155.667C73.4443 155.667 60.0181 141.516 60.0181 120.067C60.0181 98.6184 73.4443 85.2009 92.5536 85.2009C111.663 85.2009 123.919 98.0423 123.919 119.779V121.97H72.2745L72.2833 121.962ZM72.2833 112.918H111.968C111.235 101.246 103.946 94.9694 92.1258 94.9694C81.4756 94.9694 73.453 101.831 72.2833 112.918Z" fill="black"/>
<path d="M199.946 152.891H189.147V141.071C183.892 150.551 175.581 155.658 165.507 155.658C146.835 155.658 134.281 141.944 134.281 120.495C134.281 99.0459 146.686 85.3315 164.922 85.3315C175.869 85.3315 183.744 90.1503 188.85 99.9188V87.6624H199.937V152.882L199.946 152.891ZM167.41 96.427C153.984 96.427 146.11 104.886 146.11 119.919C146.11 134.951 153.844 144.58 167.847 144.58C181.125 144.58 189.147 136.121 189.147 120.94C189.147 105.759 179.955 96.427 167.41 96.427Z" fill="black"/>
<path d="M223.437 135.528C227.086 142.381 232.63 145.89 240.067 145.89C247.505 145.89 252.324 141.804 252.324 136.113C252.324 131.006 248.972 128.527 242.11 126.196C226.065 120.652 216.428 117.876 216.428 105.044C216.428 93.5206 225.471 85.3496 239.483 85.3496C250.718 85.3496 259.177 90.02 262.677 98.3306L253.633 103.874C250.857 97.8942 245.611 94.5332 238.749 94.5332C231.888 94.5332 227.663 98.6187 227.663 104.31C227.663 111.172 233.494 112.045 244.441 115.546C257.282 119.631 263.411 124.301 263.411 134.952C263.411 147.208 254.218 155.667 239.631 155.667C227.523 155.667 219.064 151.145 213.957 141.953L223.437 135.537V135.528Z" fill="black"/>
<path d="M283.838 95.5543C290.691 88.7015 299.158 85.3406 308.936 85.3406C318.713 85.3406 327.172 88.8412 334.033 95.7027C340.895 102.267 344.396 111.023 344.396 120.504C344.396 129.984 340.895 138.452 334.033 145.305C327.172 151.869 318.425 155.667 308.936 155.667C299.446 155.667 290.699 152.166 283.838 145.305C276.976 138.452 273.476 130.133 273.476 120.504C273.476 110.875 276.976 102.416 283.838 95.5543ZM308.927 145.156C321.908 145.156 332.418 134.358 332.418 120.504C332.418 106.65 321.917 95.8424 308.927 95.8424C295.937 95.8424 285.287 106.641 285.287 120.504C285.287 134.366 296.085 145.156 308.927 145.156Z" fill="black"/>
<path d="M360.284 87.6801H371.371V97.7455C376.766 89.4261 384.649 85.3406 395.011 85.3406C410.183 85.3406 419.524 93.7996 419.524 108.535V152.891H408.437V114.515C408.437 101.534 402.597 94.9607 391.074 94.9607C384.212 94.9607 378.966 97.2915 375.168 101.962C371.231 106.632 371.371 112.027 371.371 119.177V152.882H360.284V87.6627V87.6801Z" fill="black"/>
<path d="M65.6311 10.3177H49.7344V3.94507H88.2148V10.3177H72.3181V60.2079H65.6311V10.3177Z" fill="black"/>
<path d="M94.2729 0.636475H100.174V30.4658C103.168 25.9787 107.411 23.7789 112.998 23.7789C121.186 23.7789 126.215 28.3445 126.215 36.2885V60.2165H120.235V39.5185C120.235 32.5173 117.084 28.973 110.868 28.973C107.167 28.973 104.338 30.2301 102.287 32.753C100.165 35.2671 100.244 38.1828 100.244 42.0414V60.2165H94.2642V0.636475H94.2729Z" fill="black"/>
<path d="M140.864 43.5255V44.0755C140.864 51.6266 145.744 56.6637 152.509 56.6637C157.232 56.6637 161.012 54.1495 163.919 49.0339L168.484 52.1068C164.94 58.4794 159.51 61.7094 152.195 61.7094C141.492 61.7094 134.255 54.0797 134.255 42.5041C134.255 30.9286 141.492 23.6917 151.802 23.6917C162.112 23.6917 168.72 30.6143 168.72 42.347V43.5255H140.864ZM140.864 38.6456H162.269C161.876 32.3515 157.939 28.9644 151.566 28.9644C145.822 28.9644 141.492 32.6658 140.864 38.6456Z" fill="black"/>
<path d="M112.99 276.739L84.1645 182.703H103.771L125.508 258.075L166.616 182.703H187.646L96.6829 339.819H76.1245L112.981 276.739H112.99Z" fill="black"/>
<path d="M249.304 178.923C280.495 178.923 302.223 201.838 302.223 229.485C302.223 267.52 277.649 292.802 242.923 292.802C210.553 292.802 189.768 271.065 189.768 239.882C189.768 204.911 215.52 178.923 249.304 178.923ZM208.196 239.411C208.196 262.798 222.373 278.162 244.11 278.162C265.847 278.162 284.039 259.498 284.039 232.802C284.039 210.123 269.391 193.816 248.361 193.816C225.446 193.816 208.196 212.951 208.196 239.411Z" fill="black"/>
<path d="M351.834 182.703L345.689 229.485C344.039 242.003 342.616 251.458 342.616 258.075C342.616 269.415 350.647 276.032 365.06 276.032C388.447 276.032 391.755 262.562 395.535 235.159L402.388 182.711H420.581L413.492 236.347C410.891 253.832 409.948 268.245 399.079 279.82C391.284 288.087 379.237 292.819 364.108 292.819C339.534 292.819 324.179 279.82 324.179 260.213C324.179 254.303 325.357 245.094 327.016 231.859L333.397 182.72H351.826L351.834 182.703Z" fill="black"/>
<path d="M5.72824 205.452C9.45582 201.725 14.0651 199.891 19.3815 199.891C24.6978 199.891 29.3071 201.794 33.0347 205.531C36.7623 209.101 38.6741 213.868 38.6741 219.027C38.6741 224.186 36.771 228.795 33.0347 232.523C29.3071 236.093 24.5407 238.162 19.3815 238.162C14.2222 238.162 9.45582 236.259 5.72824 232.523C2.00067 228.787 0.0888672 224.265 0.0888672 219.027C0.0888672 213.789 1.99194 209.18 5.72824 205.452ZM19.3815 232.444C26.4438 232.444 32.1617 226.569 32.1617 219.027C32.1617 211.484 26.4438 205.609 19.3815 205.609C12.3192 205.609 6.52264 211.484 6.52264 219.027C6.52264 226.569 12.3977 232.444 19.3815 232.444Z" fill="black"/>
<path d="M48.914 206.168H42.0874V201.166H48.914V190.926C48.914 180.363 50.66 175.841 59.1539 175.841C61.057 175.841 62.8029 176.077 64.3917 176.635V182.903C62.8815 182.03 61.2927 181.629 59.6253 181.629C55.1034 181.629 54.9375 184.964 54.9375 191.712V201.157H64.383V206.159H54.9375V236.643H48.9053V206.159L48.914 206.168Z" fill="black"/>
</g>
<defs>
<clipPath id="clip0_47_120">
<rect width="420.5" height="339.183" fill="white" transform="translate(0.0888672 0.636475)"/>
</clipPath>
</defs>
</svg>
